<mxfile host="app.diagrams.net" agent="Mozilla/5.0 (Windows NT 10.0; Win64; x64) AppleWebKit/537.36 (KHTML, like Gecko) Chrome/127.0.0.0 Safari/537.36" version="24.7.7">
  <diagram name="Page-1" id="Q2G6NzA9fETB5mKTj2UX">
    <mxGraphModel dx="2759" dy="964" grid="1" gridSize="10" guides="1" tooltips="1" connect="1" arrows="1" fold="1" page="1" pageScale="1" pageWidth="850" pageHeight="1100" math="0" shadow="0">
      <root>
        <mxCell id="0" />
        <mxCell id="1" parent="0" />
        <mxCell id="U-HYUyTbsH5IdzPb3pFt-1" value="" style="shape=table;startSize=0;container=1;collapsible=0;childLayout=tableLayout;" vertex="1" parent="1">
          <mxGeometry x="40" y="845" width="240" height="40" as="geometry" />
        </mxCell>
        <mxCell id="U-HYUyTbsH5IdzPb3pFt-2" value="" style="shape=tableRow;horizontal=0;startSize=0;swimlaneHead=0;swimlaneBody=0;strokeColor=inherit;top=0;left=0;bottom=0;right=0;collapsible=0;dropTarget=0;fillColor=none;points=[[0,0.5],[1,0.5]];portConstraint=eastwest;" vertex="1" parent="U-HYUyTbsH5IdzPb3pFt-1">
          <mxGeometry width="240" height="40" as="geometry" />
        </mxCell>
        <mxCell id="U-HYUyTbsH5IdzPb3pFt-3" value="Pharmacy_Id" style="shape=partialRectangle;html=1;whiteSpace=wrap;connectable=0;strokeColor=inherit;overflow=hidden;fillColor=none;top=0;left=0;bottom=0;right=0;pointerEvents=1;" vertex="1" parent="U-HYUyTbsH5IdzPb3pFt-2">
          <mxGeometry width="80" height="40" as="geometry">
            <mxRectangle width="80" height="40" as="alternateBounds" />
          </mxGeometry>
        </mxCell>
        <mxCell id="U-HYUyTbsH5IdzPb3pFt-4" value="Name" style="shape=partialRectangle;html=1;whiteSpace=wrap;connectable=0;strokeColor=inherit;overflow=hidden;fillColor=none;top=0;left=0;bottom=0;right=0;pointerEvents=1;" vertex="1" parent="U-HYUyTbsH5IdzPb3pFt-2">
          <mxGeometry x="80" width="80" height="40" as="geometry">
            <mxRectangle width="80" height="40" as="alternateBounds" />
          </mxGeometry>
        </mxCell>
        <mxCell id="U-HYUyTbsH5IdzPb3pFt-5" value="Email" style="shape=partialRectangle;html=1;whiteSpace=wrap;connectable=0;strokeColor=inherit;overflow=hidden;fillColor=none;top=0;left=0;bottom=0;right=0;pointerEvents=1;" vertex="1" parent="U-HYUyTbsH5IdzPb3pFt-2">
          <mxGeometry x="160" width="80" height="40" as="geometry">
            <mxRectangle width="80" height="40" as="alternateBounds" />
          </mxGeometry>
        </mxCell>
        <mxCell id="U-HYUyTbsH5IdzPb3pFt-6" value="Pharmacy" style="text;html=1;align=center;verticalAlign=middle;whiteSpace=wrap;rounded=0;" vertex="1" parent="1">
          <mxGeometry x="50" y="800" width="60" height="30" as="geometry" />
        </mxCell>
        <mxCell id="U-HYUyTbsH5IdzPb3pFt-7" value="" style="shape=table;startSize=0;container=1;collapsible=0;childLayout=tableLayout;" vertex="1" parent="1">
          <mxGeometry x="280" y="845" width="420" height="40" as="geometry" />
        </mxCell>
        <mxCell id="U-HYUyTbsH5IdzPb3pFt-8" value="" style="shape=tableRow;horizontal=0;startSize=0;swimlaneHead=0;swimlaneBody=0;strokeColor=inherit;top=0;left=0;bottom=0;right=0;collapsible=0;dropTarget=0;fillColor=none;points=[[0,0.5],[1,0.5]];portConstraint=eastwest;" vertex="1" parent="U-HYUyTbsH5IdzPb3pFt-7">
          <mxGeometry width="420" height="40" as="geometry" />
        </mxCell>
        <mxCell id="U-HYUyTbsH5IdzPb3pFt-9" value="Licence Number" style="shape=partialRectangle;html=1;whiteSpace=wrap;connectable=0;strokeColor=inherit;overflow=hidden;fillColor=none;top=0;left=0;bottom=0;right=0;pointerEvents=1;" vertex="1" parent="U-HYUyTbsH5IdzPb3pFt-8">
          <mxGeometry width="90" height="40" as="geometry">
            <mxRectangle width="90" height="40" as="alternateBounds" />
          </mxGeometry>
        </mxCell>
        <mxCell id="U-HYUyTbsH5IdzPb3pFt-10" value="Drs Name" style="shape=partialRectangle;html=1;whiteSpace=wrap;connectable=0;strokeColor=inherit;overflow=hidden;fillColor=none;top=0;left=0;bottom=0;right=0;pointerEvents=1;" vertex="1" parent="U-HYUyTbsH5IdzPb3pFt-8">
          <mxGeometry x="90" width="80" height="40" as="geometry">
            <mxRectangle width="80" height="40" as="alternateBounds" />
          </mxGeometry>
        </mxCell>
        <mxCell id="U-HYUyTbsH5IdzPb3pFt-11" value="City" style="shape=partialRectangle;html=1;whiteSpace=wrap;connectable=0;strokeColor=inherit;overflow=hidden;fillColor=none;top=0;left=0;bottom=0;right=0;pointerEvents=1;" vertex="1" parent="U-HYUyTbsH5IdzPb3pFt-8">
          <mxGeometry x="170" width="60" height="40" as="geometry">
            <mxRectangle width="60" height="40" as="alternateBounds" />
          </mxGeometry>
        </mxCell>
        <mxCell id="U-HYUyTbsH5IdzPb3pFt-12" value="Street" style="shape=partialRectangle;html=1;whiteSpace=wrap;connectable=0;strokeColor=inherit;overflow=hidden;fillColor=none;top=0;left=0;bottom=0;right=0;pointerEvents=1;" vertex="1" parent="U-HYUyTbsH5IdzPb3pFt-8">
          <mxGeometry x="230" width="70" height="40" as="geometry">
            <mxRectangle width="70" height="40" as="alternateBounds" />
          </mxGeometry>
        </mxCell>
        <mxCell id="U-HYUyTbsH5IdzPb3pFt-13" value="LocationURL" style="shape=partialRectangle;html=1;whiteSpace=wrap;connectable=0;strokeColor=inherit;overflow=hidden;fillColor=none;top=0;left=0;bottom=0;right=0;pointerEvents=1;" vertex="1" parent="U-HYUyTbsH5IdzPb3pFt-8">
          <mxGeometry x="300" width="120" height="40" as="geometry">
            <mxRectangle width="120" height="40" as="alternateBounds" />
          </mxGeometry>
        </mxCell>
        <mxCell id="U-HYUyTbsH5IdzPb3pFt-14" value="" style="endArrow=none;html=1;rounded=0;" edge="1" parent="1">
          <mxGeometry width="50" height="50" relative="1" as="geometry">
            <mxPoint x="55" y="875" as="sourcePoint" />
            <mxPoint x="85" y="875" as="targetPoint" />
          </mxGeometry>
        </mxCell>
        <mxCell id="U-HYUyTbsH5IdzPb3pFt-15" value="" style="shape=table;startSize=0;container=1;collapsible=0;childLayout=tableLayout;" vertex="1" parent="1">
          <mxGeometry x="20" y="1120" width="160" height="40" as="geometry" />
        </mxCell>
        <mxCell id="U-HYUyTbsH5IdzPb3pFt-16" value="" style="shape=tableRow;horizontal=0;startSize=0;swimlaneHead=0;swimlaneBody=0;strokeColor=inherit;top=0;left=0;bottom=0;right=0;collapsible=0;dropTarget=0;fillColor=none;points=[[0,0.5],[1,0.5]];portConstraint=eastwest;" vertex="1" parent="U-HYUyTbsH5IdzPb3pFt-15">
          <mxGeometry width="160" height="40" as="geometry" />
        </mxCell>
        <mxCell id="U-HYUyTbsH5IdzPb3pFt-17" value="Pharmacy_Id" style="shape=partialRectangle;html=1;whiteSpace=wrap;connectable=0;strokeColor=inherit;overflow=hidden;fillColor=none;top=0;left=0;bottom=0;right=0;pointerEvents=1;" vertex="1" parent="U-HYUyTbsH5IdzPb3pFt-16">
          <mxGeometry width="80" height="40" as="geometry">
            <mxRectangle width="80" height="40" as="alternateBounds" />
          </mxGeometry>
        </mxCell>
        <mxCell id="U-HYUyTbsH5IdzPb3pFt-18" value="User_Id" style="shape=partialRectangle;html=1;whiteSpace=wrap;connectable=0;strokeColor=inherit;overflow=hidden;fillColor=none;top=0;left=0;bottom=0;right=0;pointerEvents=1;" vertex="1" parent="U-HYUyTbsH5IdzPb3pFt-16">
          <mxGeometry x="80" width="80" height="40" as="geometry">
            <mxRectangle width="80" height="40" as="alternateBounds" />
          </mxGeometry>
        </mxCell>
        <mxCell id="U-HYUyTbsH5IdzPb3pFt-19" value="User_Pharmacy" style="text;html=1;align=center;verticalAlign=middle;whiteSpace=wrap;rounded=0;" vertex="1" parent="1">
          <mxGeometry x="40" y="1090" width="60" height="30" as="geometry" />
        </mxCell>
        <mxCell id="U-HYUyTbsH5IdzPb3pFt-20" value="" style="endArrow=none;html=1;rounded=0;" edge="1" parent="1">
          <mxGeometry width="50" height="50" relative="1" as="geometry">
            <mxPoint x="20" y="1170" as="sourcePoint" />
            <mxPoint x="160" y="1170" as="targetPoint" />
          </mxGeometry>
        </mxCell>
        <mxCell id="U-HYUyTbsH5IdzPb3pFt-21" value="" style="shape=table;startSize=0;container=1;collapsible=0;childLayout=tableLayout;" vertex="1" parent="1">
          <mxGeometry x="180" y="1120" width="120" height="40" as="geometry" />
        </mxCell>
        <mxCell id="U-HYUyTbsH5IdzPb3pFt-22" value="" style="shape=tableRow;horizontal=0;startSize=0;swimlaneHead=0;swimlaneBody=0;strokeColor=inherit;top=0;left=0;bottom=0;right=0;collapsible=0;dropTarget=0;fillColor=none;points=[[0,0.5],[1,0.5]];portConstraint=eastwest;" vertex="1" parent="U-HYUyTbsH5IdzPb3pFt-21">
          <mxGeometry width="120" height="40" as="geometry" />
        </mxCell>
        <mxCell id="U-HYUyTbsH5IdzPb3pFt-23" value="Favorite_Pharmacy" style="shape=partialRectangle;html=1;whiteSpace=wrap;connectable=0;strokeColor=inherit;overflow=hidden;fillColor=none;top=0;left=0;bottom=0;right=0;pointerEvents=1;" vertex="1" parent="U-HYUyTbsH5IdzPb3pFt-22">
          <mxGeometry width="120" height="40" as="geometry">
            <mxRectangle width="120" height="40" as="alternateBounds" />
          </mxGeometry>
        </mxCell>
        <mxCell id="U-HYUyTbsH5IdzPb3pFt-24" value="" style="shape=table;startSize=0;container=1;collapsible=0;childLayout=tableLayout;" vertex="1" parent="1">
          <mxGeometry x="40" y="1010" width="400" height="40" as="geometry" />
        </mxCell>
        <mxCell id="U-HYUyTbsH5IdzPb3pFt-25" value="" style="shape=tableRow;horizontal=0;startSize=0;swimlaneHead=0;swimlaneBody=0;strokeColor=inherit;top=0;left=0;bottom=0;right=0;collapsible=0;dropTarget=0;fillColor=none;points=[[0,0.5],[1,0.5]];portConstraint=eastwest;" vertex="1" parent="U-HYUyTbsH5IdzPb3pFt-24">
          <mxGeometry width="400" height="40" as="geometry" />
        </mxCell>
        <mxCell id="U-HYUyTbsH5IdzPb3pFt-26" value="User_Id" style="shape=partialRectangle;html=1;whiteSpace=wrap;connectable=0;strokeColor=inherit;overflow=hidden;fillColor=none;top=0;left=0;bottom=0;right=0;pointerEvents=1;" vertex="1" parent="U-HYUyTbsH5IdzPb3pFt-25">
          <mxGeometry width="60" height="40" as="geometry">
            <mxRectangle width="60" height="40" as="alternateBounds" />
          </mxGeometry>
        </mxCell>
        <mxCell id="U-HYUyTbsH5IdzPb3pFt-27" value="Name" style="shape=partialRectangle;html=1;whiteSpace=wrap;connectable=0;strokeColor=inherit;overflow=hidden;fillColor=none;top=0;left=0;bottom=0;right=0;pointerEvents=1;" vertex="1" parent="U-HYUyTbsH5IdzPb3pFt-25">
          <mxGeometry x="60" width="60" height="40" as="geometry">
            <mxRectangle width="60" height="40" as="alternateBounds" />
          </mxGeometry>
        </mxCell>
        <mxCell id="U-HYUyTbsH5IdzPb3pFt-28" value="Email" style="shape=partialRectangle;html=1;whiteSpace=wrap;connectable=0;strokeColor=inherit;overflow=hidden;fillColor=none;top=0;left=0;bottom=0;right=0;pointerEvents=1;" vertex="1" parent="U-HYUyTbsH5IdzPb3pFt-25">
          <mxGeometry x="120" width="60" height="40" as="geometry">
            <mxRectangle width="60" height="40" as="alternateBounds" />
          </mxGeometry>
        </mxCell>
        <mxCell id="U-HYUyTbsH5IdzPb3pFt-29" value="Password" style="shape=partialRectangle;html=1;whiteSpace=wrap;connectable=0;strokeColor=inherit;overflow=hidden;fillColor=none;top=0;left=0;bottom=0;right=0;pointerEvents=1;" vertex="1" parent="U-HYUyTbsH5IdzPb3pFt-25">
          <mxGeometry x="180" width="60" height="40" as="geometry">
            <mxRectangle width="60" height="40" as="alternateBounds" />
          </mxGeometry>
        </mxCell>
        <mxCell id="U-HYUyTbsH5IdzPb3pFt-30" value="Contact Number" style="shape=partialRectangle;html=1;whiteSpace=wrap;connectable=0;strokeColor=inherit;overflow=hidden;fillColor=none;top=0;left=0;bottom=0;right=0;pointerEvents=1;" vertex="1" parent="U-HYUyTbsH5IdzPb3pFt-25">
          <mxGeometry x="240" width="60" height="40" as="geometry">
            <mxRectangle width="60" height="40" as="alternateBounds" />
          </mxGeometry>
        </mxCell>
        <mxCell id="U-HYUyTbsH5IdzPb3pFt-31" value="Lang_Location" style="shape=partialRectangle;html=1;whiteSpace=wrap;connectable=0;strokeColor=inherit;overflow=hidden;fillColor=none;top=0;left=0;bottom=0;right=0;pointerEvents=1;" vertex="1" parent="U-HYUyTbsH5IdzPb3pFt-25">
          <mxGeometry x="300" width="100" height="40" as="geometry">
            <mxRectangle width="100" height="40" as="alternateBounds" />
          </mxGeometry>
        </mxCell>
        <mxCell id="U-HYUyTbsH5IdzPb3pFt-32" value="User" style="text;html=1;align=center;verticalAlign=middle;whiteSpace=wrap;rounded=0;" vertex="1" parent="1">
          <mxGeometry x="35" y="980" width="60" height="30" as="geometry" />
        </mxCell>
        <mxCell id="U-HYUyTbsH5IdzPb3pFt-33" value="" style="endArrow=none;html=1;rounded=0;" edge="1" parent="1">
          <mxGeometry width="50" height="50" relative="1" as="geometry">
            <mxPoint x="50" y="1040" as="sourcePoint" />
            <mxPoint x="90" y="1040" as="targetPoint" />
          </mxGeometry>
        </mxCell>
        <mxCell id="U-HYUyTbsH5IdzPb3pFt-34" value="" style="shape=table;startSize=0;container=1;collapsible=0;childLayout=tableLayout;" vertex="1" parent="1">
          <mxGeometry x="440" y="1010" width="120" height="40" as="geometry" />
        </mxCell>
        <mxCell id="U-HYUyTbsH5IdzPb3pFt-35" value="" style="shape=tableRow;horizontal=0;startSize=0;swimlaneHead=0;swimlaneBody=0;strokeColor=inherit;top=0;left=0;bottom=0;right=0;collapsible=0;dropTarget=0;fillColor=none;points=[[0,0.5],[1,0.5]];portConstraint=eastwest;" vertex="1" parent="U-HYUyTbsH5IdzPb3pFt-34">
          <mxGeometry width="120" height="40" as="geometry" />
        </mxCell>
        <mxCell id="U-HYUyTbsH5IdzPb3pFt-36" value="Latuted_Location" style="shape=partialRectangle;html=1;whiteSpace=wrap;connectable=0;strokeColor=inherit;overflow=hidden;fillColor=none;top=0;left=0;bottom=0;right=0;pointerEvents=1;" vertex="1" parent="U-HYUyTbsH5IdzPb3pFt-35">
          <mxGeometry width="120" height="40" as="geometry">
            <mxRectangle width="120" height="40" as="alternateBounds" />
          </mxGeometry>
        </mxCell>
        <mxCell id="U-HYUyTbsH5IdzPb3pFt-37" value="" style="endArrow=classic;html=1;rounded=0;" edge="1" parent="1">
          <mxGeometry width="50" height="50" relative="1" as="geometry">
            <mxPoint x="-80" y="864" as="sourcePoint" />
            <mxPoint x="40" y="864.29" as="targetPoint" />
          </mxGeometry>
        </mxCell>
        <mxCell id="U-HYUyTbsH5IdzPb3pFt-38" value="" style="endArrow=none;html=1;rounded=0;" edge="1" parent="1">
          <mxGeometry width="50" height="50" relative="1" as="geometry">
            <mxPoint x="-80" y="1150" as="sourcePoint" />
            <mxPoint x="-80" y="860" as="targetPoint" />
          </mxGeometry>
        </mxCell>
        <mxCell id="U-HYUyTbsH5IdzPb3pFt-39" value="" style="endArrow=classic;html=1;rounded=0;" edge="1" parent="1">
          <mxGeometry width="50" height="50" relative="1" as="geometry">
            <mxPoint x="-40" y="1040" as="sourcePoint" />
            <mxPoint x="40" y="1040" as="targetPoint" />
          </mxGeometry>
        </mxCell>
        <mxCell id="U-HYUyTbsH5IdzPb3pFt-40" value="" style="endArrow=none;html=1;rounded=0;" edge="1" parent="1">
          <mxGeometry width="50" height="50" relative="1" as="geometry">
            <mxPoint x="-40" y="1080" as="sourcePoint" />
            <mxPoint x="-40" y="1040" as="targetPoint" />
          </mxGeometry>
        </mxCell>
        <mxCell id="U-HYUyTbsH5IdzPb3pFt-41" value="" style="endArrow=none;html=1;rounded=0;" edge="1" parent="1">
          <mxGeometry width="50" height="50" relative="1" as="geometry">
            <mxPoint x="149" y="1117" as="sourcePoint" />
            <mxPoint x="148.57" y="1080" as="targetPoint" />
          </mxGeometry>
        </mxCell>
        <mxCell id="U-HYUyTbsH5IdzPb3pFt-42" value="" style="shape=table;startSize=0;container=1;collapsible=0;childLayout=tableLayout;" vertex="1" parent="1">
          <mxGeometry x="30" y="1210" width="270" height="40" as="geometry" />
        </mxCell>
        <mxCell id="U-HYUyTbsH5IdzPb3pFt-43" value="" style="shape=tableRow;horizontal=0;startSize=0;swimlaneHead=0;swimlaneBody=0;strokeColor=inherit;top=0;left=0;bottom=0;right=0;collapsible=0;dropTarget=0;fillColor=none;points=[[0,0.5],[1,0.5]];portConstraint=eastwest;" vertex="1" parent="U-HYUyTbsH5IdzPb3pFt-42">
          <mxGeometry width="270" height="40" as="geometry" />
        </mxCell>
        <mxCell id="U-HYUyTbsH5IdzPb3pFt-44" value="Review_Id" style="shape=partialRectangle;html=1;whiteSpace=wrap;connectable=0;strokeColor=inherit;overflow=hidden;fillColor=none;top=0;left=0;bottom=0;right=0;pointerEvents=1;" vertex="1" parent="U-HYUyTbsH5IdzPb3pFt-43">
          <mxGeometry width="70" height="40" as="geometry">
            <mxRectangle width="70" height="40" as="alternateBounds" />
          </mxGeometry>
        </mxCell>
        <mxCell id="U-HYUyTbsH5IdzPb3pFt-45" value="Comment" style="shape=partialRectangle;html=1;whiteSpace=wrap;connectable=0;strokeColor=inherit;overflow=hidden;fillColor=none;top=0;left=0;bottom=0;right=0;pointerEvents=1;" vertex="1" parent="U-HYUyTbsH5IdzPb3pFt-43">
          <mxGeometry x="70" width="60" height="40" as="geometry">
            <mxRectangle width="60" height="40" as="alternateBounds" />
          </mxGeometry>
        </mxCell>
        <mxCell id="U-HYUyTbsH5IdzPb3pFt-46" value="Date" style="shape=partialRectangle;html=1;whiteSpace=wrap;connectable=0;strokeColor=inherit;overflow=hidden;fillColor=none;top=0;left=0;bottom=0;right=0;pointerEvents=1;" vertex="1" parent="U-HYUyTbsH5IdzPb3pFt-43">
          <mxGeometry x="130" width="60" height="40" as="geometry">
            <mxRectangle width="60" height="40" as="alternateBounds" />
          </mxGeometry>
        </mxCell>
        <mxCell id="U-HYUyTbsH5IdzPb3pFt-47" value="Rating" style="shape=partialRectangle;html=1;whiteSpace=wrap;connectable=0;strokeColor=inherit;overflow=hidden;fillColor=none;top=0;left=0;bottom=0;right=0;pointerEvents=1;" vertex="1" parent="U-HYUyTbsH5IdzPb3pFt-43">
          <mxGeometry x="190" width="80" height="40" as="geometry">
            <mxRectangle width="80" height="40" as="alternateBounds" />
          </mxGeometry>
        </mxCell>
        <mxCell id="U-HYUyTbsH5IdzPb3pFt-48" value="Review" style="text;html=1;align=center;verticalAlign=middle;whiteSpace=wrap;rounded=0;" vertex="1" parent="1">
          <mxGeometry x="30" y="1180" width="60" height="30" as="geometry" />
        </mxCell>
        <mxCell id="U-HYUyTbsH5IdzPb3pFt-49" value="" style="endArrow=none;html=1;rounded=0;" edge="1" parent="1">
          <mxGeometry width="50" height="50" relative="1" as="geometry">
            <mxPoint x="45" y="1240" as="sourcePoint" />
            <mxPoint x="85" y="1240" as="targetPoint" />
          </mxGeometry>
        </mxCell>
        <mxCell id="U-HYUyTbsH5IdzPb3pFt-50" value="User_Review" style="text;html=1;align=center;verticalAlign=middle;whiteSpace=wrap;rounded=0;" vertex="1" parent="1">
          <mxGeometry x="40" y="1340" width="60" height="30" as="geometry" />
        </mxCell>
        <mxCell id="U-HYUyTbsH5IdzPb3pFt-51" value="" style="shape=table;startSize=0;container=1;collapsible=0;childLayout=tableLayout;" vertex="1" parent="1">
          <mxGeometry x="30" y="1370" width="160" height="40" as="geometry" />
        </mxCell>
        <mxCell id="U-HYUyTbsH5IdzPb3pFt-52" value="" style="shape=tableRow;horizontal=0;startSize=0;swimlaneHead=0;swimlaneBody=0;strokeColor=inherit;top=0;left=0;bottom=0;right=0;collapsible=0;dropTarget=0;fillColor=none;points=[[0,0.5],[1,0.5]];portConstraint=eastwest;" vertex="1" parent="U-HYUyTbsH5IdzPb3pFt-51">
          <mxGeometry width="160" height="40" as="geometry" />
        </mxCell>
        <mxCell id="U-HYUyTbsH5IdzPb3pFt-53" value="User_Id" style="shape=partialRectangle;html=1;whiteSpace=wrap;connectable=0;strokeColor=inherit;overflow=hidden;fillColor=none;top=0;left=0;bottom=0;right=0;pointerEvents=1;" vertex="1" parent="U-HYUyTbsH5IdzPb3pFt-52">
          <mxGeometry width="80" height="40" as="geometry">
            <mxRectangle width="80" height="40" as="alternateBounds" />
          </mxGeometry>
        </mxCell>
        <mxCell id="U-HYUyTbsH5IdzPb3pFt-54" value="Review_Id" style="shape=partialRectangle;html=1;whiteSpace=wrap;connectable=0;strokeColor=inherit;overflow=hidden;fillColor=none;top=0;left=0;bottom=0;right=0;pointerEvents=1;" vertex="1" parent="U-HYUyTbsH5IdzPb3pFt-52">
          <mxGeometry x="80" width="80" height="40" as="geometry">
            <mxRectangle width="80" height="40" as="alternateBounds" />
          </mxGeometry>
        </mxCell>
        <mxCell id="U-HYUyTbsH5IdzPb3pFt-55" value="" style="endArrow=none;html=1;rounded=0;" edge="1" parent="1">
          <mxGeometry width="50" height="50" relative="1" as="geometry">
            <mxPoint x="115" y="1400" as="sourcePoint" />
            <mxPoint x="185" y="1400" as="targetPoint" />
          </mxGeometry>
        </mxCell>
        <mxCell id="U-HYUyTbsH5IdzPb3pFt-56" value="" style="endArrow=none;dashed=1;html=1;dashPattern=1 3;strokeWidth=2;rounded=0;" edge="1" parent="1">
          <mxGeometry width="50" height="50" relative="1" as="geometry">
            <mxPoint x="50" y="1400" as="sourcePoint" />
            <mxPoint x="110" y="1400" as="targetPoint" />
          </mxGeometry>
        </mxCell>
        <mxCell id="U-HYUyTbsH5IdzPb3pFt-57" value="" style="endArrow=classic;html=1;rounded=0;" edge="1" parent="1">
          <mxGeometry width="50" height="50" relative="1" as="geometry">
            <mxPoint x="-140" y="1020" as="sourcePoint" />
            <mxPoint x="40" y="1020" as="targetPoint" />
          </mxGeometry>
        </mxCell>
        <mxCell id="U-HYUyTbsH5IdzPb3pFt-58" value="" style="endArrow=none;html=1;rounded=0;" edge="1" parent="1">
          <mxGeometry width="50" height="50" relative="1" as="geometry">
            <mxPoint x="-140" y="1390" as="sourcePoint" />
            <mxPoint x="-140" y="1020" as="targetPoint" />
          </mxGeometry>
        </mxCell>
        <mxCell id="U-HYUyTbsH5IdzPb3pFt-59" value="" style="endArrow=none;html=1;rounded=0;entryX=0;entryY=0.5;entryDx=0;entryDy=0;" edge="1" parent="1" target="U-HYUyTbsH5IdzPb3pFt-52">
          <mxGeometry width="50" height="50" relative="1" as="geometry">
            <mxPoint x="-140" y="1390" as="sourcePoint" />
            <mxPoint x="-30" y="1369.29" as="targetPoint" />
          </mxGeometry>
        </mxCell>
        <mxCell id="U-HYUyTbsH5IdzPb3pFt-60" value="" style="endArrow=classic;html=1;rounded=0;" edge="1" parent="1">
          <mxGeometry width="50" height="50" relative="1" as="geometry">
            <mxPoint x="-50" y="1220" as="sourcePoint" />
            <mxPoint x="35" y="1220" as="targetPoint" />
          </mxGeometry>
        </mxCell>
        <mxCell id="U-HYUyTbsH5IdzPb3pFt-61" value="" style="endArrow=none;html=1;rounded=0;" edge="1" parent="1">
          <mxGeometry width="50" height="50" relative="1" as="geometry">
            <mxPoint x="-50" y="1340" as="sourcePoint" />
            <mxPoint x="-50" y="1220" as="targetPoint" />
          </mxGeometry>
        </mxCell>
        <mxCell id="U-HYUyTbsH5IdzPb3pFt-62" value="" style="endArrow=none;html=1;rounded=0;" edge="1" parent="1">
          <mxGeometry width="50" height="50" relative="1" as="geometry">
            <mxPoint x="-55" y="1340" as="sourcePoint" />
            <mxPoint x="155" y="1340" as="targetPoint" />
          </mxGeometry>
        </mxCell>
        <mxCell id="U-HYUyTbsH5IdzPb3pFt-63" value="" style="shape=table;startSize=0;container=1;collapsible=0;childLayout=tableLayout;" vertex="1" parent="1">
          <mxGeometry x="20" y="1470" width="380" height="40" as="geometry" />
        </mxCell>
        <mxCell id="U-HYUyTbsH5IdzPb3pFt-64" value="" style="shape=tableRow;horizontal=0;startSize=0;swimlaneHead=0;swimlaneBody=0;strokeColor=inherit;top=0;left=0;bottom=0;right=0;collapsible=0;dropTarget=0;fillColor=none;points=[[0,0.5],[1,0.5]];portConstraint=eastwest;" vertex="1" parent="U-HYUyTbsH5IdzPb3pFt-63">
          <mxGeometry width="380" height="40" as="geometry" />
        </mxCell>
        <mxCell id="U-HYUyTbsH5IdzPb3pFt-65" value="Pharmacist_Id" style="shape=partialRectangle;html=1;whiteSpace=wrap;connectable=0;strokeColor=inherit;overflow=hidden;fillColor=none;top=0;left=0;bottom=0;right=0;pointerEvents=1;" vertex="1" parent="U-HYUyTbsH5IdzPb3pFt-64">
          <mxGeometry width="80" height="40" as="geometry">
            <mxRectangle width="80" height="40" as="alternateBounds" />
          </mxGeometry>
        </mxCell>
        <mxCell id="U-HYUyTbsH5IdzPb3pFt-66" value="Licence Number" style="shape=partialRectangle;html=1;whiteSpace=wrap;connectable=0;strokeColor=inherit;overflow=hidden;fillColor=none;top=0;left=0;bottom=0;right=0;pointerEvents=1;" vertex="1" parent="U-HYUyTbsH5IdzPb3pFt-64">
          <mxGeometry x="80" width="70" height="40" as="geometry">
            <mxRectangle width="70" height="40" as="alternateBounds" />
          </mxGeometry>
        </mxCell>
        <mxCell id="U-HYUyTbsH5IdzPb3pFt-67" value="userName" style="shape=partialRectangle;html=1;whiteSpace=wrap;connectable=0;strokeColor=inherit;overflow=hidden;fillColor=none;top=0;left=0;bottom=0;right=0;pointerEvents=1;" vertex="1" parent="U-HYUyTbsH5IdzPb3pFt-64">
          <mxGeometry x="150" width="70" height="40" as="geometry">
            <mxRectangle width="70" height="40" as="alternateBounds" />
          </mxGeometry>
        </mxCell>
        <mxCell id="U-HYUyTbsH5IdzPb3pFt-68" value="email" style="shape=partialRectangle;html=1;whiteSpace=wrap;connectable=0;strokeColor=inherit;overflow=hidden;fillColor=none;top=0;left=0;bottom=0;right=0;pointerEvents=1;" vertex="1" parent="U-HYUyTbsH5IdzPb3pFt-64">
          <mxGeometry x="220" width="80" height="40" as="geometry">
            <mxRectangle width="80" height="40" as="alternateBounds" />
          </mxGeometry>
        </mxCell>
        <mxCell id="U-HYUyTbsH5IdzPb3pFt-69" value="password" style="shape=partialRectangle;html=1;whiteSpace=wrap;connectable=0;strokeColor=inherit;overflow=hidden;fillColor=none;top=0;left=0;bottom=0;right=0;pointerEvents=1;" vertex="1" parent="U-HYUyTbsH5IdzPb3pFt-64">
          <mxGeometry x="300" width="80" height="40" as="geometry">
            <mxRectangle width="80" height="40" as="alternateBounds" />
          </mxGeometry>
        </mxCell>
        <mxCell id="U-HYUyTbsH5IdzPb3pFt-70" value="Pharmacist" style="text;html=1;align=center;verticalAlign=middle;whiteSpace=wrap;rounded=0;" vertex="1" parent="1">
          <mxGeometry x="30" y="1430" width="60" height="30" as="geometry" />
        </mxCell>
        <mxCell id="U-HYUyTbsH5IdzPb3pFt-71" value="" style="endArrow=none;html=1;rounded=0;" edge="1" parent="1">
          <mxGeometry width="50" height="50" relative="1" as="geometry">
            <mxPoint x="30" y="1500" as="sourcePoint" />
            <mxPoint x="70" y="1500" as="targetPoint" />
          </mxGeometry>
        </mxCell>
        <mxCell id="U-HYUyTbsH5IdzPb3pFt-72" value="" style="shape=table;startSize=0;container=1;collapsible=0;childLayout=tableLayout;" vertex="1" parent="1">
          <mxGeometry x="400" y="1470" width="85" height="40" as="geometry" />
        </mxCell>
        <mxCell id="U-HYUyTbsH5IdzPb3pFt-73" value="" style="shape=tableRow;horizontal=0;startSize=0;swimlaneHead=0;swimlaneBody=0;strokeColor=inherit;top=0;left=0;bottom=0;right=0;collapsible=0;dropTarget=0;fillColor=none;points=[[0,0.5],[1,0.5]];portConstraint=eastwest;" vertex="1" parent="U-HYUyTbsH5IdzPb3pFt-72">
          <mxGeometry width="85" height="40" as="geometry" />
        </mxCell>
        <mxCell id="U-HYUyTbsH5IdzPb3pFt-74" value="Pharmacy_Id" style="shape=partialRectangle;html=1;whiteSpace=wrap;connectable=0;strokeColor=inherit;overflow=hidden;fillColor=none;top=0;left=0;bottom=0;right=0;pointerEvents=1;" vertex="1" parent="U-HYUyTbsH5IdzPb3pFt-73">
          <mxGeometry width="85" height="40" as="geometry">
            <mxRectangle width="85" height="40" as="alternateBounds" />
          </mxGeometry>
        </mxCell>
        <mxCell id="U-HYUyTbsH5IdzPb3pFt-75" value="" style="endArrow=none;dashed=1;html=1;dashPattern=1 3;strokeWidth=2;rounded=0;" edge="1" parent="1">
          <mxGeometry width="50" height="50" relative="1" as="geometry">
            <mxPoint x="407.5" y="1500" as="sourcePoint" />
            <mxPoint x="477.5" y="1500" as="targetPoint" />
          </mxGeometry>
        </mxCell>
        <mxCell id="U-HYUyTbsH5IdzPb3pFt-76" value="" style="endArrow=classic;html=1;rounded=0;" edge="1" parent="1">
          <mxGeometry width="50" height="50" relative="1" as="geometry">
            <mxPoint x="-160" y="883.5699999999999" as="sourcePoint" />
            <mxPoint x="40" y="883.5699999999999" as="targetPoint" />
          </mxGeometry>
        </mxCell>
        <mxCell id="U-HYUyTbsH5IdzPb3pFt-77" value="" style="endArrow=none;html=1;rounded=0;" edge="1" parent="1">
          <mxGeometry width="50" height="50" relative="1" as="geometry">
            <mxPoint x="-160" y="1420" as="sourcePoint" />
            <mxPoint x="-160" y="885" as="targetPoint" />
          </mxGeometry>
        </mxCell>
        <mxCell id="U-HYUyTbsH5IdzPb3pFt-78" value="" style="endArrow=none;html=1;rounded=0;" edge="1" parent="1">
          <mxGeometry width="50" height="50" relative="1" as="geometry">
            <mxPoint x="-160" y="1420" as="sourcePoint" />
            <mxPoint x="430" y="1420" as="targetPoint" />
          </mxGeometry>
        </mxCell>
        <mxCell id="U-HYUyTbsH5IdzPb3pFt-79" value="" style="endArrow=none;html=1;rounded=0;" edge="1" parent="1">
          <mxGeometry width="50" height="50" relative="1" as="geometry">
            <mxPoint x="430" y="1470" as="sourcePoint" />
            <mxPoint x="430.43" y="1420" as="targetPoint" />
          </mxGeometry>
        </mxCell>
        <mxCell id="U-HYUyTbsH5IdzPb3pFt-80" value="" style="shape=table;startSize=0;container=1;collapsible=0;childLayout=tableLayout;" vertex="1" parent="1">
          <mxGeometry x="20" y="1580" width="240" height="40" as="geometry" />
        </mxCell>
        <mxCell id="U-HYUyTbsH5IdzPb3pFt-81" value="" style="shape=tableRow;horizontal=0;startSize=0;swimlaneHead=0;swimlaneBody=0;strokeColor=inherit;top=0;left=0;bottom=0;right=0;collapsible=0;dropTarget=0;fillColor=none;points=[[0,0.5],[1,0.5]];portConstraint=eastwest;" vertex="1" parent="U-HYUyTbsH5IdzPb3pFt-80">
          <mxGeometry width="240" height="40" as="geometry" />
        </mxCell>
        <mxCell id="U-HYUyTbsH5IdzPb3pFt-82" value="Inventory_Id" style="shape=partialRectangle;html=1;whiteSpace=wrap;connectable=0;strokeColor=inherit;overflow=hidden;fillColor=none;top=0;left=0;bottom=0;right=0;pointerEvents=1;" vertex="1" parent="U-HYUyTbsH5IdzPb3pFt-81">
          <mxGeometry width="80" height="40" as="geometry">
            <mxRectangle width="80" height="40" as="alternateBounds" />
          </mxGeometry>
        </mxCell>
        <mxCell id="U-HYUyTbsH5IdzPb3pFt-83" value="Quantity" style="shape=partialRectangle;html=1;whiteSpace=wrap;connectable=0;strokeColor=inherit;overflow=hidden;fillColor=none;top=0;left=0;bottom=0;right=0;pointerEvents=1;" vertex="1" parent="U-HYUyTbsH5IdzPb3pFt-81">
          <mxGeometry x="80" width="60" height="40" as="geometry">
            <mxRectangle width="60" height="40" as="alternateBounds" />
          </mxGeometry>
        </mxCell>
        <mxCell id="U-HYUyTbsH5IdzPb3pFt-84" value="Update Date" style="shape=partialRectangle;html=1;whiteSpace=wrap;connectable=0;strokeColor=inherit;overflow=hidden;fillColor=none;top=0;left=0;bottom=0;right=0;pointerEvents=1;" vertex="1" parent="U-HYUyTbsH5IdzPb3pFt-81">
          <mxGeometry x="140" width="100" height="40" as="geometry">
            <mxRectangle width="100" height="40" as="alternateBounds" />
          </mxGeometry>
        </mxCell>
        <mxCell id="U-HYUyTbsH5IdzPb3pFt-85" value="Inventory" style="text;html=1;align=center;verticalAlign=middle;whiteSpace=wrap;rounded=0;" vertex="1" parent="1">
          <mxGeometry x="20" y="1540" width="60" height="30" as="geometry" />
        </mxCell>
        <mxCell id="U-HYUyTbsH5IdzPb3pFt-86" value="" style="endArrow=none;html=1;rounded=0;" edge="1" parent="1">
          <mxGeometry width="50" height="50" relative="1" as="geometry">
            <mxPoint x="30" y="1610" as="sourcePoint" />
            <mxPoint x="70" y="1610" as="targetPoint" />
          </mxGeometry>
        </mxCell>
        <mxCell id="U-HYUyTbsH5IdzPb3pFt-87" value="" style="shape=table;startSize=0;container=1;collapsible=0;childLayout=tableLayout;" vertex="1" parent="1">
          <mxGeometry x="20" y="1690" width="180" height="40" as="geometry" />
        </mxCell>
        <mxCell id="U-HYUyTbsH5IdzPb3pFt-88" value="" style="shape=tableRow;horizontal=0;startSize=0;swimlaneHead=0;swimlaneBody=0;strokeColor=inherit;top=0;left=0;bottom=0;right=0;collapsible=0;dropTarget=0;fillColor=none;points=[[0,0.5],[1,0.5]];portConstraint=eastwest;" vertex="1" parent="U-HYUyTbsH5IdzPb3pFt-87">
          <mxGeometry width="180" height="40" as="geometry" />
        </mxCell>
        <mxCell id="U-HYUyTbsH5IdzPb3pFt-89" value="Pharmacist_Id" style="shape=partialRectangle;html=1;whiteSpace=wrap;connectable=0;strokeColor=inherit;overflow=hidden;fillColor=none;top=0;left=0;bottom=0;right=0;pointerEvents=1;" vertex="1" parent="U-HYUyTbsH5IdzPb3pFt-88">
          <mxGeometry width="90" height="40" as="geometry">
            <mxRectangle width="90" height="40" as="alternateBounds" />
          </mxGeometry>
        </mxCell>
        <mxCell id="U-HYUyTbsH5IdzPb3pFt-90" value="Inverntory_Id" style="shape=partialRectangle;html=1;whiteSpace=wrap;connectable=0;strokeColor=inherit;overflow=hidden;fillColor=none;top=0;left=0;bottom=0;right=0;pointerEvents=1;" vertex="1" parent="U-HYUyTbsH5IdzPb3pFt-88">
          <mxGeometry x="90" width="90" height="40" as="geometry">
            <mxRectangle width="90" height="40" as="alternateBounds" />
          </mxGeometry>
        </mxCell>
        <mxCell id="U-HYUyTbsH5IdzPb3pFt-91" value="" style="endArrow=none;html=1;rounded=0;" edge="1" parent="1">
          <mxGeometry width="50" height="50" relative="1" as="geometry">
            <mxPoint x="30" y="1720" as="sourcePoint" />
            <mxPoint x="100" y="1720" as="targetPoint" />
          </mxGeometry>
        </mxCell>
        <mxCell id="U-HYUyTbsH5IdzPb3pFt-92" value="" style="endArrow=none;dashed=1;html=1;dashPattern=1 3;strokeWidth=2;rounded=0;" edge="1" parent="1">
          <mxGeometry width="50" height="50" relative="1" as="geometry">
            <mxPoint x="120" y="1720" as="sourcePoint" />
            <mxPoint x="190" y="1720" as="targetPoint" />
          </mxGeometry>
        </mxCell>
        <mxCell id="U-HYUyTbsH5IdzPb3pFt-93" value="PharmacistOfInventory" style="text;html=1;align=center;verticalAlign=middle;whiteSpace=wrap;rounded=0;" vertex="1" parent="1">
          <mxGeometry x="60" y="1650" width="60" height="30" as="geometry" />
        </mxCell>
        <mxCell id="U-HYUyTbsH5IdzPb3pFt-94" value="" style="endArrow=classic;html=1;rounded=0;" edge="1" parent="1">
          <mxGeometry width="50" height="50" relative="1" as="geometry">
            <mxPoint x="-70" y="1480" as="sourcePoint" />
            <mxPoint x="20" y="1480" as="targetPoint" />
          </mxGeometry>
        </mxCell>
        <mxCell id="U-HYUyTbsH5IdzPb3pFt-95" value="" style="endArrow=none;html=1;rounded=0;" edge="1" parent="1">
          <mxGeometry width="50" height="50" relative="1" as="geometry">
            <mxPoint x="-70" y="1720" as="sourcePoint" />
            <mxPoint x="-70" y="1480" as="targetPoint" />
          </mxGeometry>
        </mxCell>
        <mxCell id="U-HYUyTbsH5IdzPb3pFt-96" value="" style="endArrow=none;html=1;rounded=0;" edge="1" parent="1">
          <mxGeometry width="50" height="50" relative="1" as="geometry">
            <mxPoint x="-70" y="1720" as="sourcePoint" />
            <mxPoint x="20" y="1720" as="targetPoint" />
          </mxGeometry>
        </mxCell>
        <mxCell id="U-HYUyTbsH5IdzPb3pFt-97" value="" style="endArrow=classic;html=1;rounded=0;" edge="1" parent="1">
          <mxGeometry width="50" height="50" relative="1" as="geometry">
            <mxPoint x="-30" y="1600" as="sourcePoint" />
            <mxPoint x="20" y="1600" as="targetPoint" />
          </mxGeometry>
        </mxCell>
        <mxCell id="U-HYUyTbsH5IdzPb3pFt-98" value="" style="endArrow=none;html=1;rounded=0;" edge="1" parent="1">
          <mxGeometry width="50" height="50" relative="1" as="geometry">
            <mxPoint x="-30" y="1650" as="sourcePoint" />
            <mxPoint x="-30" y="1600" as="targetPoint" />
          </mxGeometry>
        </mxCell>
        <mxCell id="U-HYUyTbsH5IdzPb3pFt-99" value="" style="endArrow=none;html=1;rounded=0;" edge="1" parent="1">
          <mxGeometry width="50" height="50" relative="1" as="geometry">
            <mxPoint x="-35" y="1648.57" as="sourcePoint" />
            <mxPoint x="180" y="1649" as="targetPoint" />
          </mxGeometry>
        </mxCell>
        <mxCell id="U-HYUyTbsH5IdzPb3pFt-100" value="" style="endArrow=none;html=1;rounded=0;exitX=0.889;exitY=0;exitDx=0;exitDy=0;exitPerimeter=0;" edge="1" parent="1" source="U-HYUyTbsH5IdzPb3pFt-88">
          <mxGeometry width="50" height="50" relative="1" as="geometry">
            <mxPoint x="180" y="1680" as="sourcePoint" />
            <mxPoint x="180" y="1650" as="targetPoint" />
          </mxGeometry>
        </mxCell>
        <mxCell id="U-HYUyTbsH5IdzPb3pFt-101" value="" style="shape=table;startSize=0;container=1;collapsible=0;childLayout=tableLayout;" vertex="1" parent="1">
          <mxGeometry y="1800" width="320" height="40" as="geometry" />
        </mxCell>
        <mxCell id="U-HYUyTbsH5IdzPb3pFt-102" value="" style="shape=tableRow;horizontal=0;startSize=0;swimlaneHead=0;swimlaneBody=0;strokeColor=inherit;top=0;left=0;bottom=0;right=0;collapsible=0;dropTarget=0;fillColor=none;points=[[0,0.5],[1,0.5]];portConstraint=eastwest;" vertex="1" parent="U-HYUyTbsH5IdzPb3pFt-101">
          <mxGeometry width="320" height="40" as="geometry" />
        </mxCell>
        <mxCell id="U-HYUyTbsH5IdzPb3pFt-103" value="Pharmacist_Id" style="shape=partialRectangle;html=1;whiteSpace=wrap;connectable=0;strokeColor=inherit;overflow=hidden;fillColor=none;top=0;left=0;bottom=0;right=0;pointerEvents=1;" vertex="1" parent="U-HYUyTbsH5IdzPb3pFt-102">
          <mxGeometry width="140" height="40" as="geometry">
            <mxRectangle width="140" height="40" as="alternateBounds" />
          </mxGeometry>
        </mxCell>
        <mxCell id="U-HYUyTbsH5IdzPb3pFt-104" value="Inventory_Id" style="shape=partialRectangle;html=1;whiteSpace=wrap;connectable=0;strokeColor=inherit;overflow=hidden;fillColor=none;top=0;left=0;bottom=0;right=0;pointerEvents=1;" vertex="1" parent="U-HYUyTbsH5IdzPb3pFt-102">
          <mxGeometry x="140" width="93" height="40" as="geometry">
            <mxRectangle width="93" height="40" as="alternateBounds" />
          </mxGeometry>
        </mxCell>
        <mxCell id="U-HYUyTbsH5IdzPb3pFt-105" value="Branch" style="shape=partialRectangle;html=1;whiteSpace=wrap;connectable=0;strokeColor=inherit;overflow=hidden;fillColor=none;top=0;left=0;bottom=0;right=0;pointerEvents=1;" vertex="1" parent="U-HYUyTbsH5IdzPb3pFt-102">
          <mxGeometry x="233" width="87" height="40" as="geometry">
            <mxRectangle width="87" height="40" as="alternateBounds" />
          </mxGeometry>
        </mxCell>
        <mxCell id="U-HYUyTbsH5IdzPb3pFt-106" value="Inventory_Pharmacist_Branch" style="text;html=1;align=center;verticalAlign=middle;whiteSpace=wrap;rounded=0;" vertex="1" parent="1">
          <mxGeometry x="30" y="1760" width="60" height="30" as="geometry" />
        </mxCell>
        <mxCell id="U-HYUyTbsH5IdzPb3pFt-107" value="" style="endArrow=none;html=1;rounded=0;" edge="1" parent="1">
          <mxGeometry width="50" height="50" relative="1" as="geometry">
            <mxPoint x="70" y="1850" as="sourcePoint" />
            <mxPoint x="205" y="1850" as="targetPoint" />
          </mxGeometry>
        </mxCell>
        <mxCell id="U-HYUyTbsH5IdzPb3pFt-108" value="" style="endArrow=classic;html=1;rounded=0;" edge="1" parent="1">
          <mxGeometry width="50" height="50" relative="1" as="geometry">
            <mxPoint x="-170" y="1500" as="sourcePoint" />
            <mxPoint x="20" y="1500" as="targetPoint" />
          </mxGeometry>
        </mxCell>
        <mxCell id="U-HYUyTbsH5IdzPb3pFt-109" value="" style="endArrow=none;html=1;rounded=0;" edge="1" parent="1">
          <mxGeometry width="50" height="50" relative="1" as="geometry">
            <mxPoint x="-170" y="1830" as="sourcePoint" />
            <mxPoint x="-170" y="1500" as="targetPoint" />
          </mxGeometry>
        </mxCell>
        <mxCell id="U-HYUyTbsH5IdzPb3pFt-110" value="" style="endArrow=none;html=1;rounded=0;entryX=-0.004;entryY=0.775;entryDx=0;entryDy=0;entryPerimeter=0;" edge="1" parent="1" target="U-HYUyTbsH5IdzPb3pFt-102">
          <mxGeometry width="50" height="50" relative="1" as="geometry">
            <mxPoint x="-170" y="1830" as="sourcePoint" />
            <mxPoint x="-20" y="1830" as="targetPoint" />
          </mxGeometry>
        </mxCell>
        <mxCell id="U-HYUyTbsH5IdzPb3pFt-111" value="" style="endArrow=classic;html=1;rounded=0;" edge="1" parent="1">
          <mxGeometry width="50" height="50" relative="1" as="geometry">
            <mxPoint x="-120" y="1590" as="sourcePoint" />
            <mxPoint x="20" y="1590" as="targetPoint" />
          </mxGeometry>
        </mxCell>
        <mxCell id="U-HYUyTbsH5IdzPb3pFt-112" value="" style="endArrow=none;html=1;rounded=0;" edge="1" parent="1">
          <mxGeometry width="50" height="50" relative="1" as="geometry">
            <mxPoint x="-120" y="1760" as="sourcePoint" />
            <mxPoint x="-120" y="1590" as="targetPoint" />
          </mxGeometry>
        </mxCell>
        <mxCell id="U-HYUyTbsH5IdzPb3pFt-113" value="" style="endArrow=none;html=1;rounded=0;" edge="1" parent="1">
          <mxGeometry width="50" height="50" relative="1" as="geometry">
            <mxPoint x="-120" y="1760" as="sourcePoint" />
            <mxPoint x="200" y="1760" as="targetPoint" />
          </mxGeometry>
        </mxCell>
        <mxCell id="U-HYUyTbsH5IdzPb3pFt-114" value="" style="endArrow=none;html=1;rounded=0;" edge="1" parent="1">
          <mxGeometry width="50" height="50" relative="1" as="geometry">
            <mxPoint x="198.57" y="1800" as="sourcePoint" />
            <mxPoint x="199" y="1760" as="targetPoint" />
          </mxGeometry>
        </mxCell>
        <mxCell id="U-HYUyTbsH5IdzPb3pFt-115" value="Medicine" style="text;html=1;align=center;verticalAlign=middle;whiteSpace=wrap;rounded=0;" vertex="1" parent="1">
          <mxGeometry x="5" y="1870" width="60" height="30" as="geometry" />
        </mxCell>
        <mxCell id="U-HYUyTbsH5IdzPb3pFt-116" value="" style="shape=table;startSize=0;container=1;collapsible=0;childLayout=tableLayout;" vertex="1" parent="1">
          <mxGeometry x="-10" y="1910" width="390" height="40" as="geometry" />
        </mxCell>
        <mxCell id="U-HYUyTbsH5IdzPb3pFt-117" value="" style="shape=tableRow;horizontal=0;startSize=0;swimlaneHead=0;swimlaneBody=0;strokeColor=inherit;top=0;left=0;bottom=0;right=0;collapsible=0;dropTarget=0;fillColor=none;points=[[0,0.5],[1,0.5]];portConstraint=eastwest;" vertex="1" parent="U-HYUyTbsH5IdzPb3pFt-116">
          <mxGeometry width="390" height="40" as="geometry" />
        </mxCell>
        <mxCell id="U-HYUyTbsH5IdzPb3pFt-118" value="Medicine_Id" style="shape=partialRectangle;html=1;whiteSpace=wrap;connectable=0;strokeColor=inherit;overflow=hidden;fillColor=none;top=0;left=0;bottom=0;right=0;pointerEvents=1;" vertex="1" parent="U-HYUyTbsH5IdzPb3pFt-117">
          <mxGeometry width="80" height="40" as="geometry">
            <mxRectangle width="80" height="40" as="alternateBounds" />
          </mxGeometry>
        </mxCell>
        <mxCell id="U-HYUyTbsH5IdzPb3pFt-119" value="Name" style="shape=partialRectangle;html=1;whiteSpace=wrap;connectable=0;strokeColor=inherit;overflow=hidden;fillColor=none;top=0;left=0;bottom=0;right=0;pointerEvents=1;" vertex="1" parent="U-HYUyTbsH5IdzPb3pFt-117">
          <mxGeometry x="80" width="45" height="40" as="geometry">
            <mxRectangle width="45" height="40" as="alternateBounds" />
          </mxGeometry>
        </mxCell>
        <mxCell id="U-HYUyTbsH5IdzPb3pFt-120" value="Price" style="shape=partialRectangle;html=1;whiteSpace=wrap;connectable=0;strokeColor=inherit;overflow=hidden;fillColor=none;top=0;left=0;bottom=0;right=0;pointerEvents=1;" vertex="1" parent="U-HYUyTbsH5IdzPb3pFt-117">
          <mxGeometry x="125" width="55" height="40" as="geometry">
            <mxRectangle width="55" height="40" as="alternateBounds" />
          </mxGeometry>
        </mxCell>
        <mxCell id="U-HYUyTbsH5IdzPb3pFt-121" value="Quantity" style="shape=partialRectangle;html=1;whiteSpace=wrap;connectable=0;strokeColor=inherit;overflow=hidden;fillColor=none;top=0;left=0;bottom=0;right=0;pointerEvents=1;" vertex="1" parent="U-HYUyTbsH5IdzPb3pFt-117">
          <mxGeometry x="180" width="60" height="40" as="geometry">
            <mxRectangle width="60" height="40" as="alternateBounds" />
          </mxGeometry>
        </mxCell>
        <mxCell id="U-HYUyTbsH5IdzPb3pFt-122" value="Dosage" style="shape=partialRectangle;html=1;whiteSpace=wrap;connectable=0;strokeColor=inherit;overflow=hidden;fillColor=none;top=0;left=0;bottom=0;right=0;pointerEvents=1;" vertex="1" parent="U-HYUyTbsH5IdzPb3pFt-117">
          <mxGeometry x="240" width="70" height="40" as="geometry">
            <mxRectangle width="70" height="40" as="alternateBounds" />
          </mxGeometry>
        </mxCell>
        <mxCell id="U-HYUyTbsH5IdzPb3pFt-123" value="Discription" style="shape=partialRectangle;html=1;whiteSpace=wrap;connectable=0;strokeColor=inherit;overflow=hidden;fillColor=none;top=0;left=0;bottom=0;right=0;pointerEvents=1;" vertex="1" parent="U-HYUyTbsH5IdzPb3pFt-117">
          <mxGeometry x="310" width="80" height="40" as="geometry">
            <mxRectangle width="80" height="40" as="alternateBounds" />
          </mxGeometry>
        </mxCell>
        <mxCell id="U-HYUyTbsH5IdzPb3pFt-124" value="" style="endArrow=none;html=1;rounded=0;" edge="1" parent="1">
          <mxGeometry width="50" height="50" relative="1" as="geometry">
            <mxPoint x="2.5" y="1939.12" as="sourcePoint" />
            <mxPoint x="47.5" y="1939.12" as="targetPoint" />
          </mxGeometry>
        </mxCell>
        <mxCell id="U-HYUyTbsH5IdzPb3pFt-125" value="" style="shape=table;startSize=0;container=1;collapsible=0;childLayout=tableLayout;" vertex="1" parent="1">
          <mxGeometry x="-15" y="2019.12" width="170" height="40" as="geometry" />
        </mxCell>
        <mxCell id="U-HYUyTbsH5IdzPb3pFt-126" value="" style="shape=tableRow;horizontal=0;startSize=0;swimlaneHead=0;swimlaneBody=0;strokeColor=inherit;top=0;left=0;bottom=0;right=0;collapsible=0;dropTarget=0;fillColor=none;points=[[0,0.5],[1,0.5]];portConstraint=eastwest;" vertex="1" parent="U-HYUyTbsH5IdzPb3pFt-125">
          <mxGeometry width="170" height="40" as="geometry" />
        </mxCell>
        <mxCell id="U-HYUyTbsH5IdzPb3pFt-127" value="Inventory_Id" style="shape=partialRectangle;html=1;whiteSpace=wrap;connectable=0;strokeColor=inherit;overflow=hidden;fillColor=none;top=0;left=0;bottom=0;right=0;pointerEvents=1;" vertex="1" parent="U-HYUyTbsH5IdzPb3pFt-126">
          <mxGeometry width="80" height="40" as="geometry">
            <mxRectangle width="80" height="40" as="alternateBounds" />
          </mxGeometry>
        </mxCell>
        <mxCell id="U-HYUyTbsH5IdzPb3pFt-128" value="Medicine_Id" style="shape=partialRectangle;html=1;whiteSpace=wrap;connectable=0;strokeColor=inherit;overflow=hidden;fillColor=none;top=0;left=0;bottom=0;right=0;pointerEvents=1;" vertex="1" parent="U-HYUyTbsH5IdzPb3pFt-126">
          <mxGeometry x="80" width="90" height="40" as="geometry">
            <mxRectangle width="90" height="40" as="alternateBounds" />
          </mxGeometry>
        </mxCell>
        <mxCell id="U-HYUyTbsH5IdzPb3pFt-129" value="Inventory_Of_Medicine" style="text;html=1;align=center;verticalAlign=middle;whiteSpace=wrap;rounded=0;" vertex="1" parent="1">
          <mxGeometry x="5" y="1989.12" width="60" height="30" as="geometry" />
        </mxCell>
        <mxCell id="U-HYUyTbsH5IdzPb3pFt-130" value="" style="endArrow=none;html=1;rounded=0;" edge="1" parent="1">
          <mxGeometry width="50" height="50" relative="1" as="geometry">
            <mxPoint y="2070" as="sourcePoint" />
            <mxPoint x="140" y="2070" as="targetPoint" />
          </mxGeometry>
        </mxCell>
        <mxCell id="U-HYUyTbsH5IdzPb3pFt-131" value="" style="endArrow=classic;html=1;rounded=0;" edge="1" parent="1">
          <mxGeometry width="50" height="50" relative="1" as="geometry">
            <mxPoint x="-155" y="1610" as="sourcePoint" />
            <mxPoint x="20" y="1610" as="targetPoint" />
          </mxGeometry>
        </mxCell>
        <mxCell id="U-HYUyTbsH5IdzPb3pFt-132" value="" style="endArrow=none;html=1;rounded=0;" edge="1" parent="1">
          <mxGeometry width="50" height="50" relative="1" as="geometry">
            <mxPoint x="-150" y="2030" as="sourcePoint" />
            <mxPoint x="-150" y="1610" as="targetPoint" />
          </mxGeometry>
        </mxCell>
        <mxCell id="U-HYUyTbsH5IdzPb3pFt-133" value="" style="endArrow=none;html=1;rounded=0;" edge="1" parent="1">
          <mxGeometry width="50" height="50" relative="1" as="geometry">
            <mxPoint x="-150" y="2030.29" as="sourcePoint" />
            <mxPoint x="-10" y="2030" as="targetPoint" />
          </mxGeometry>
        </mxCell>
        <mxCell id="U-HYUyTbsH5IdzPb3pFt-134" value="" style="endArrow=classic;html=1;rounded=0;" edge="1" parent="1">
          <mxGeometry width="50" height="50" relative="1" as="geometry">
            <mxPoint x="-110" y="1929.29" as="sourcePoint" />
            <mxPoint x="-10" y="1929.58" as="targetPoint" />
          </mxGeometry>
        </mxCell>
        <mxCell id="U-HYUyTbsH5IdzPb3pFt-135" value="" style="endArrow=none;html=1;rounded=0;" edge="1" parent="1">
          <mxGeometry width="50" height="50" relative="1" as="geometry">
            <mxPoint x="-110" y="1990" as="sourcePoint" />
            <mxPoint x="-110" y="1930" as="targetPoint" />
          </mxGeometry>
        </mxCell>
        <mxCell id="U-HYUyTbsH5IdzPb3pFt-136" value="" style="endArrow=none;html=1;rounded=0;" edge="1" parent="1">
          <mxGeometry width="50" height="50" relative="1" as="geometry">
            <mxPoint x="-110" y="1987.69" as="sourcePoint" />
            <mxPoint x="110" y="1988" as="targetPoint" />
          </mxGeometry>
        </mxCell>
        <mxCell id="U-HYUyTbsH5IdzPb3pFt-137" value="" style="endArrow=none;html=1;rounded=0;" edge="1" parent="1">
          <mxGeometry width="50" height="50" relative="1" as="geometry">
            <mxPoint x="110" y="2020" as="sourcePoint" />
            <mxPoint x="110" y="1989.12" as="targetPoint" />
          </mxGeometry>
        </mxCell>
        <mxCell id="U-HYUyTbsH5IdzPb3pFt-138" value="" style="shape=table;startSize=0;container=1;collapsible=0;childLayout=tableLayout;" vertex="1" parent="1">
          <mxGeometry x="-20" y="2125" width="195" height="40" as="geometry" />
        </mxCell>
        <mxCell id="U-HYUyTbsH5IdzPb3pFt-139" value="" style="shape=tableRow;horizontal=0;startSize=0;swimlaneHead=0;swimlaneBody=0;strokeColor=inherit;top=0;left=0;bottom=0;right=0;collapsible=0;dropTarget=0;fillColor=none;points=[[0,0.5],[1,0.5]];portConstraint=eastwest;" vertex="1" parent="U-HYUyTbsH5IdzPb3pFt-138">
          <mxGeometry width="195" height="40" as="geometry" />
        </mxCell>
        <mxCell id="U-HYUyTbsH5IdzPb3pFt-140" value="Medicine_Id" style="shape=partialRectangle;html=1;whiteSpace=wrap;connectable=0;strokeColor=inherit;overflow=hidden;fillColor=none;top=0;left=0;bottom=0;right=0;pointerEvents=1;" vertex="1" parent="U-HYUyTbsH5IdzPb3pFt-139">
          <mxGeometry width="100" height="40" as="geometry">
            <mxRectangle width="100" height="40" as="alternateBounds" />
          </mxGeometry>
        </mxCell>
        <mxCell id="U-HYUyTbsH5IdzPb3pFt-141" value="Manufactur" style="shape=partialRectangle;html=1;whiteSpace=wrap;connectable=0;strokeColor=inherit;overflow=hidden;fillColor=none;top=0;left=0;bottom=0;right=0;pointerEvents=1;" vertex="1" parent="U-HYUyTbsH5IdzPb3pFt-139">
          <mxGeometry x="100" width="95" height="40" as="geometry">
            <mxRectangle width="95" height="40" as="alternateBounds" />
          </mxGeometry>
        </mxCell>
        <mxCell id="U-HYUyTbsH5IdzPb3pFt-142" value="Manufactur_Of_Medicine" style="text;html=1;align=center;verticalAlign=middle;whiteSpace=wrap;rounded=0;" vertex="1" parent="1">
          <mxGeometry x="30" y="2090" width="60" height="30" as="geometry" />
        </mxCell>
        <mxCell id="U-HYUyTbsH5IdzPb3pFt-143" value="" style="endArrow=none;dashed=1;html=1;dashPattern=1 3;strokeWidth=2;rounded=0;" edge="1" parent="1">
          <mxGeometry width="50" height="50" relative="1" as="geometry">
            <mxPoint x="-5" y="2155" as="sourcePoint" />
            <mxPoint x="60" y="2155" as="targetPoint" />
          </mxGeometry>
        </mxCell>
        <mxCell id="U-HYUyTbsH5IdzPb3pFt-144" value="" style="endArrow=none;html=1;rounded=0;" edge="1" parent="1">
          <mxGeometry width="50" height="50" relative="1" as="geometry">
            <mxPoint x="10" y="2175" as="sourcePoint" />
            <mxPoint x="150" y="2175" as="targetPoint" />
          </mxGeometry>
        </mxCell>
        <mxCell id="U-HYUyTbsH5IdzPb3pFt-145" value="" style="shape=table;startSize=0;container=1;collapsible=0;childLayout=tableLayout;" vertex="1" parent="1">
          <mxGeometry x="-20" y="2230.88" width="170" height="40" as="geometry" />
        </mxCell>
        <mxCell id="U-HYUyTbsH5IdzPb3pFt-146" value="" style="shape=tableRow;horizontal=0;startSize=0;swimlaneHead=0;swimlaneBody=0;strokeColor=inherit;top=0;left=0;bottom=0;right=0;collapsible=0;dropTarget=0;fillColor=none;points=[[0,0.5],[1,0.5]];portConstraint=eastwest;" vertex="1" parent="U-HYUyTbsH5IdzPb3pFt-145">
          <mxGeometry width="170" height="40" as="geometry" />
        </mxCell>
        <mxCell id="U-HYUyTbsH5IdzPb3pFt-147" value="Medicine_Id" style="shape=partialRectangle;html=1;whiteSpace=wrap;connectable=0;strokeColor=inherit;overflow=hidden;fillColor=none;top=0;left=0;bottom=0;right=0;pointerEvents=1;" vertex="1" parent="U-HYUyTbsH5IdzPb3pFt-146">
          <mxGeometry width="80" height="40" as="geometry">
            <mxRectangle width="80" height="40" as="alternateBounds" />
          </mxGeometry>
        </mxCell>
        <mxCell id="U-HYUyTbsH5IdzPb3pFt-148" value="Category" style="shape=partialRectangle;html=1;whiteSpace=wrap;connectable=0;strokeColor=inherit;overflow=hidden;fillColor=none;top=0;left=0;bottom=0;right=0;pointerEvents=1;" vertex="1" parent="U-HYUyTbsH5IdzPb3pFt-146">
          <mxGeometry x="80" width="90" height="40" as="geometry">
            <mxRectangle width="90" height="40" as="alternateBounds" />
          </mxGeometry>
        </mxCell>
        <mxCell id="U-HYUyTbsH5IdzPb3pFt-149" value="Category_of_Medicine" style="text;html=1;align=center;verticalAlign=middle;whiteSpace=wrap;rounded=0;" vertex="1" parent="1">
          <mxGeometry x="5" y="2190" width="70" height="30.88" as="geometry" />
        </mxCell>
        <mxCell id="U-HYUyTbsH5IdzPb3pFt-150" value="" style="endArrow=none;dashed=1;html=1;dashPattern=1 3;strokeWidth=2;rounded=0;" edge="1" parent="1">
          <mxGeometry width="50" height="50" relative="1" as="geometry">
            <mxPoint x="-10" y="2260.88" as="sourcePoint" />
            <mxPoint x="40" y="2260.88" as="targetPoint" />
          </mxGeometry>
        </mxCell>
        <mxCell id="U-HYUyTbsH5IdzPb3pFt-151" value="" style="endArrow=none;html=1;rounded=0;" edge="1" parent="1">
          <mxGeometry width="50" height="50" relative="1" as="geometry">
            <mxPoint x="20" y="2280.88" as="sourcePoint" />
            <mxPoint x="110" y="2280.88" as="targetPoint" />
          </mxGeometry>
        </mxCell>
        <mxCell id="U-HYUyTbsH5IdzPb3pFt-152" value="" style="endArrow=classic;html=1;rounded=0;" edge="1" parent="1">
          <mxGeometry width="50" height="50" relative="1" as="geometry">
            <mxPoint x="-120" y="1920" as="sourcePoint" />
            <mxPoint x="-10" y="1920" as="targetPoint" />
          </mxGeometry>
        </mxCell>
        <mxCell id="U-HYUyTbsH5IdzPb3pFt-153" value="" style="endArrow=none;html=1;rounded=0;" edge="1" parent="1">
          <mxGeometry width="50" height="50" relative="1" as="geometry">
            <mxPoint x="-120" y="2140" as="sourcePoint" />
            <mxPoint x="-120" y="1920" as="targetPoint" />
          </mxGeometry>
        </mxCell>
        <mxCell id="U-HYUyTbsH5IdzPb3pFt-154" value="" style="endArrow=none;html=1;rounded=0;entryX=0;entryY=0.482;entryDx=0;entryDy=0;entryPerimeter=0;" edge="1" parent="1" target="U-HYUyTbsH5IdzPb3pFt-139">
          <mxGeometry width="50" height="50" relative="1" as="geometry">
            <mxPoint x="-120" y="2144.29" as="sourcePoint" />
            <mxPoint x="-30" y="2144.29" as="targetPoint" />
          </mxGeometry>
        </mxCell>
        <mxCell id="U-HYUyTbsH5IdzPb3pFt-155" value="" style="endArrow=classic;html=1;rounded=0;" edge="1" parent="1">
          <mxGeometry width="50" height="50" relative="1" as="geometry">
            <mxPoint x="-140" y="1950" as="sourcePoint" />
            <mxPoint x="-10" y="1950" as="targetPoint" />
          </mxGeometry>
        </mxCell>
        <mxCell id="U-HYUyTbsH5IdzPb3pFt-156" value="" style="endArrow=none;html=1;rounded=0;" edge="1" parent="1">
          <mxGeometry width="50" height="50" relative="1" as="geometry">
            <mxPoint x="-140" y="2260" as="sourcePoint" />
            <mxPoint x="-140" y="1950" as="targetPoint" />
          </mxGeometry>
        </mxCell>
        <mxCell id="U-HYUyTbsH5IdzPb3pFt-157" value="" style="endArrow=none;html=1;rounded=0;" edge="1" parent="1">
          <mxGeometry width="50" height="50" relative="1" as="geometry">
            <mxPoint x="-140" y="2260" as="sourcePoint" />
            <mxPoint x="-20" y="2260" as="targetPoint" />
          </mxGeometry>
        </mxCell>
        <mxCell id="U-HYUyTbsH5IdzPb3pFt-158" value="" style="shape=table;startSize=0;container=1;collapsible=0;childLayout=tableLayout;" vertex="1" parent="1">
          <mxGeometry x="40" y="930" width="90" height="40" as="geometry" />
        </mxCell>
        <mxCell id="U-HYUyTbsH5IdzPb3pFt-159" value="" style="shape=tableRow;horizontal=0;startSize=0;swimlaneHead=0;swimlaneBody=0;strokeColor=inherit;top=0;left=0;bottom=0;right=0;collapsible=0;dropTarget=0;fillColor=none;points=[[0,0.5],[1,0.5]];portConstraint=eastwest;" vertex="1" parent="U-HYUyTbsH5IdzPb3pFt-158">
          <mxGeometry width="90" height="40" as="geometry" />
        </mxCell>
        <mxCell id="U-HYUyTbsH5IdzPb3pFt-160" value="Pharmacy_Id" style="shape=partialRectangle;html=1;whiteSpace=wrap;connectable=0;strokeColor=inherit;overflow=hidden;fillColor=none;top=0;left=0;bottom=0;right=0;pointerEvents=1;" vertex="1" parent="U-HYUyTbsH5IdzPb3pFt-159">
          <mxGeometry width="90" height="40" as="geometry">
            <mxRectangle width="90" height="40" as="alternateBounds" />
          </mxGeometry>
        </mxCell>
        <mxCell id="U-HYUyTbsH5IdzPb3pFt-161" value="" style="shape=table;startSize=0;container=1;collapsible=0;childLayout=tableLayout;" vertex="1" parent="1">
          <mxGeometry x="130" y="930" width="130" height="40" as="geometry" />
        </mxCell>
        <mxCell id="U-HYUyTbsH5IdzPb3pFt-162" value="" style="shape=tableRow;horizontal=0;startSize=0;swimlaneHead=0;swimlaneBody=0;strokeColor=inherit;top=0;left=0;bottom=0;right=0;collapsible=0;dropTarget=0;fillColor=none;points=[[0,0.5],[1,0.5]];portConstraint=eastwest;" vertex="1" parent="U-HYUyTbsH5IdzPb3pFt-161">
          <mxGeometry width="130" height="40" as="geometry" />
        </mxCell>
        <mxCell id="U-HYUyTbsH5IdzPb3pFt-163" value="ContactNumber" style="shape=partialRectangle;html=1;whiteSpace=wrap;connectable=0;strokeColor=inherit;overflow=hidden;fillColor=none;top=0;left=0;bottom=0;right=0;pointerEvents=1;" vertex="1" parent="U-HYUyTbsH5IdzPb3pFt-162">
          <mxGeometry width="130" height="40" as="geometry">
            <mxRectangle width="130" height="40" as="alternateBounds" />
          </mxGeometry>
        </mxCell>
        <mxCell id="U-HYUyTbsH5IdzPb3pFt-164" value="Pharmacy Number&lt;div&gt;&lt;br&gt;&lt;/div&gt;" style="text;html=1;align=center;verticalAlign=middle;whiteSpace=wrap;rounded=0;" vertex="1" parent="1">
          <mxGeometry x="30" y="900" width="120" height="30" as="geometry" />
        </mxCell>
        <mxCell id="U-HYUyTbsH5IdzPb3pFt-165" value="" style="endArrow=none;dashed=1;html=1;dashPattern=1 3;strokeWidth=2;rounded=0;" edge="1" parent="1">
          <mxGeometry width="50" height="50" relative="1" as="geometry">
            <mxPoint x="55" y="960" as="sourcePoint" />
            <mxPoint x="115" y="960" as="targetPoint" />
          </mxGeometry>
        </mxCell>
        <mxCell id="U-HYUyTbsH5IdzPb3pFt-166" value="" style="endArrow=none;html=1;rounded=0;" edge="1" parent="1">
          <mxGeometry width="50" height="50" relative="1" as="geometry">
            <mxPoint x="80" y="980" as="sourcePoint" />
            <mxPoint x="190" y="980" as="targetPoint" />
          </mxGeometry>
        </mxCell>
        <mxCell id="U-HYUyTbsH5IdzPb3pFt-167" value="" style="endArrow=none;html=1;rounded=0;entryX=0;entryY=0.75;entryDx=0;entryDy=0;entryPerimeter=0;" edge="1" parent="1" target="U-HYUyTbsH5IdzPb3pFt-16">
          <mxGeometry width="50" height="50" relative="1" as="geometry">
            <mxPoint x="-80" y="1150" as="sourcePoint" />
            <mxPoint x="10" y="1170" as="targetPoint" />
          </mxGeometry>
        </mxCell>
        <mxCell id="U-HYUyTbsH5IdzPb3pFt-168" value="" style="endArrow=none;html=1;rounded=0;" edge="1" parent="1">
          <mxGeometry width="50" height="50" relative="1" as="geometry">
            <mxPoint x="-40" y="1080" as="sourcePoint" />
            <mxPoint x="150" y="1080" as="targetPoint" />
          </mxGeometry>
        </mxCell>
        <mxCell id="U-HYUyTbsH5IdzPb3pFt-169" value="" style="endArrow=classic;html=1;rounded=0;" edge="1" parent="1">
          <mxGeometry width="50" height="50" relative="1" as="geometry">
            <mxPoint x="-30" y="843.75" as="sourcePoint" />
            <mxPoint x="40" y="843.75" as="targetPoint" />
          </mxGeometry>
        </mxCell>
        <mxCell id="U-HYUyTbsH5IdzPb3pFt-170" value="" style="endArrow=none;html=1;rounded=0;" edge="1" parent="1">
          <mxGeometry width="50" height="50" relative="1" as="geometry">
            <mxPoint x="-30" y="940" as="sourcePoint" />
            <mxPoint x="-30" y="840" as="targetPoint" />
          </mxGeometry>
        </mxCell>
        <mxCell id="U-HYUyTbsH5IdzPb3pFt-171" value="" style="endArrow=none;html=1;rounded=0;" edge="1" parent="1">
          <mxGeometry width="50" height="50" relative="1" as="geometry">
            <mxPoint x="-30" y="940" as="sourcePoint" />
            <mxPoint x="40" y="940" as="targetPoint" />
          </mxGeometry>
        </mxCell>
        <mxCell id="U-HYUyTbsH5IdzPb3pFt-172" value="" style="shape=table;startSize=0;container=1;collapsible=0;childLayout=tableLayout;" vertex="1" parent="1">
          <mxGeometry x="30" y="1280" width="210" height="40" as="geometry" />
        </mxCell>
        <mxCell id="U-HYUyTbsH5IdzPb3pFt-173" value="" style="shape=tableRow;horizontal=0;startSize=0;swimlaneHead=0;swimlaneBody=0;strokeColor=inherit;top=0;left=0;bottom=0;right=0;collapsible=0;dropTarget=0;fillColor=none;points=[[0,0.5],[1,0.5]];portConstraint=eastwest;" vertex="1" parent="U-HYUyTbsH5IdzPb3pFt-172">
          <mxGeometry width="210" height="40" as="geometry" />
        </mxCell>
        <mxCell id="U-HYUyTbsH5IdzPb3pFt-174" value="Pharmacy_Id" style="shape=partialRectangle;html=1;whiteSpace=wrap;connectable=0;strokeColor=inherit;overflow=hidden;fillColor=none;top=0;left=0;bottom=0;right=0;pointerEvents=1;" vertex="1" parent="U-HYUyTbsH5IdzPb3pFt-173">
          <mxGeometry width="110" height="40" as="geometry">
            <mxRectangle width="110" height="40" as="alternateBounds" />
          </mxGeometry>
        </mxCell>
        <mxCell id="U-HYUyTbsH5IdzPb3pFt-175" value="Review_Id" style="shape=partialRectangle;html=1;whiteSpace=wrap;connectable=0;strokeColor=inherit;overflow=hidden;fillColor=none;top=0;left=0;bottom=0;right=0;pointerEvents=1;" vertex="1" parent="U-HYUyTbsH5IdzPb3pFt-173">
          <mxGeometry x="110" width="100" height="40" as="geometry">
            <mxRectangle width="100" height="40" as="alternateBounds" />
          </mxGeometry>
        </mxCell>
        <mxCell id="U-HYUyTbsH5IdzPb3pFt-176" value="Pharmacy_review" style="text;html=1;align=center;verticalAlign=middle;whiteSpace=wrap;rounded=0;" vertex="1" parent="1">
          <mxGeometry x="55" y="1260" width="60" height="30" as="geometry" />
        </mxCell>
        <mxCell id="U-HYUyTbsH5IdzPb3pFt-177" value="" style="endArrow=none;html=1;rounded=0;" edge="1" parent="1">
          <mxGeometry width="50" height="50" relative="1" as="geometry">
            <mxPoint x="160" y="1310" as="sourcePoint" />
            <mxPoint x="230" y="1310" as="targetPoint" />
          </mxGeometry>
        </mxCell>
        <mxCell id="U-HYUyTbsH5IdzPb3pFt-178" value="" style="endArrow=none;dashed=1;html=1;dashPattern=1 3;strokeWidth=2;rounded=0;" edge="1" parent="1">
          <mxGeometry width="50" height="50" relative="1" as="geometry">
            <mxPoint x="60" y="1308.8899999999999" as="sourcePoint" />
            <mxPoint x="120" y="1308.8899999999999" as="targetPoint" />
          </mxGeometry>
        </mxCell>
        <mxCell id="U-HYUyTbsH5IdzPb3pFt-179" value="" style="endArrow=none;html=1;rounded=0;" edge="1" parent="1">
          <mxGeometry width="50" height="50" relative="1" as="geometry">
            <mxPoint x="155" y="1370" as="sourcePoint" />
            <mxPoint x="155" y="1340" as="targetPoint" />
          </mxGeometry>
        </mxCell>
        <mxCell id="U-HYUyTbsH5IdzPb3pFt-180" value="" style="endArrow=classic;html=1;rounded=0;" edge="1" parent="1">
          <mxGeometry width="50" height="50" relative="1" as="geometry">
            <mxPoint x="-60" y="850" as="sourcePoint" />
            <mxPoint x="40" y="850" as="targetPoint" />
          </mxGeometry>
        </mxCell>
        <mxCell id="U-HYUyTbsH5IdzPb3pFt-181" value="" style="endArrow=none;html=1;rounded=0;" edge="1" parent="1">
          <mxGeometry width="50" height="50" relative="1" as="geometry">
            <mxPoint x="-60" y="1300" as="sourcePoint" />
            <mxPoint x="-60" y="850" as="targetPoint" />
          </mxGeometry>
        </mxCell>
        <mxCell id="U-HYUyTbsH5IdzPb3pFt-182" value="" style="endArrow=none;html=1;rounded=0;" edge="1" parent="1">
          <mxGeometry width="50" height="50" relative="1" as="geometry">
            <mxPoint x="-60" y="1299.38" as="sourcePoint" />
            <mxPoint x="30" y="1299" as="targetPoint" />
          </mxGeometry>
        </mxCell>
        <mxCell id="U-HYUyTbsH5IdzPb3pFt-183" value="" style="endArrow=classic;html=1;rounded=0;" edge="1" parent="1">
          <mxGeometry width="50" height="50" relative="1" as="geometry">
            <mxPoint x="-30" y="1240" as="sourcePoint" />
            <mxPoint x="30" y="1240" as="targetPoint" />
          </mxGeometry>
        </mxCell>
        <mxCell id="U-HYUyTbsH5IdzPb3pFt-184" value="" style="endArrow=none;html=1;rounded=0;" edge="1" parent="1">
          <mxGeometry width="50" height="50" relative="1" as="geometry">
            <mxPoint x="-30" y="1260" as="sourcePoint" />
            <mxPoint x="-30" y="1240" as="targetPoint" />
          </mxGeometry>
        </mxCell>
        <mxCell id="U-HYUyTbsH5IdzPb3pFt-185" value="" style="endArrow=none;html=1;rounded=0;" edge="1" parent="1">
          <mxGeometry width="50" height="50" relative="1" as="geometry">
            <mxPoint x="-30" y="1260" as="sourcePoint" />
            <mxPoint x="200" y="1260" as="targetPoint" />
          </mxGeometry>
        </mxCell>
        <mxCell id="U-HYUyTbsH5IdzPb3pFt-186" value="" style="endArrow=none;html=1;rounded=0;" edge="1" parent="1">
          <mxGeometry width="50" height="50" relative="1" as="geometry">
            <mxPoint x="200" y="1280" as="sourcePoint" />
            <mxPoint x="200" y="1260" as="targetPoint" />
          </mxGeometry>
        </mxCell>
      </root>
    </mxGraphModel>
  </diagram>
</mxfile>
